<svg xmlns="http://www.w3.org/2000/svg" viewBox="0 0 914.65 1017.8">
  <defs>
    <style>
      .cls-1 {
        fill: #293171;
      }

      .cls-2 {
        fill: #39aa35;
      }

      .cls-3 {
        fill: #46ac34;
      }

      .cls-4 {
        fill: #fcc00e;
      }

      .cls-10, .cls-5, .cls-7, .cls-8, .cls-9 {
        fill: none;
        stroke-miterlimit: 10;
      }

      .cls-5, .cls-8, .cls-9 {
        stroke: #39aa35;
      }

      .cls-5 {
        stroke-width: 6px;
      }

      .cls-6 {
        fill: #388e3c;
      }

      .cls-7 {
        stroke: #cce3bd;
      }

      .cls-8 {
        stroke-width: 2px;
      }

      .cls-9 {
        stroke-width: 4px;
      }

      .cls-10 {
        stroke: #fcc00e;
        stroke-width: 12px;
      }
    </style>
  </defs>
  <g id="Calque_7" data-name="Calque 7">
    <g>
      <path class="cls-1" d="M159.92,984.74v-70h34.5A47.35,47.35,0,0,1,215,919a33.06,33.06,0,0,1,13.9,12q5,7.8,5,18.7a34,34,0,0,1-5,18.65,32.83,32.83,0,0,1-13.9,12.1,47.21,47.21,0,0,1-20.6,4.25Zm23.6-18.4h9.9a19.08,19.08,0,0,0,8.75-1.9,13.62,13.62,0,0,0,5.85-5.65,20.66,20.66,0,0,0,0-18.15,13.8,13.8,0,0,0-5.85-5.6,19.21,19.21,0,0,0-8.75-1.9h-9.9Z" transform="translate(-93.5 -33.02)"/>
      <path class="cls-1" d="M243.92,984.74l30.6-70h23.19l30.6,70H303.92l-22.61-58.8h9.21l-22.6,58.8Zm18.19-12.2,6-17h32.2l6,17Z" transform="translate(-93.5 -33.02)"/>
      <path class="cls-1" d="M353.82,984.74V933h-20.5v-18.3h64.6V933h-20.5v51.7Z" transform="translate(-93.5 -33.02)"/>
      <path class="cls-1" d="M402.92,984.74l30.6-70h23.2l30.6,70h-24.4l-22.6-58.8h9.2l-22.6,58.8Zm18.2-12.2,6-17h32.2l6,17Z" transform="translate(-93.5 -33.02)"/>
      <path class="cls-2" d="M501.12,984.74v-70h19.4l35.6,42.6h-9v-42.6h23v70h-19.4l-35.6-42.6h9v42.6Z" transform="translate(-93.5 -33.02)"/>
      <path class="cls-2" d="M591.52,984.74v-70h56.9v17.8h-33.7v34.4h35v17.8Zm21.6-27v-17h31.2v17Z" transform="translate(-93.5 -33.02)"/>
      <path class="cls-2" d="M661.92,984.74l31.2-43.6-.11,16.5-30.2-42.9h26.5l17.61,26-11.3.1,17.19-26.1h25.4l-30.2,42v-16.4l31.7,44.4h-27l-17.59-27.2,10.89-.1-17.2,27.3Z" transform="translate(-93.5 -33.02)"/>
      <path class="cls-2" d="M787.11,986.34q-16.1,0-25.1-8.7t-9-24.4v-38.5h23.6v37.8q0,8,2.9,11.35a10.81,10.81,0,0,0,15.65,0q2.85-3.35,2.85-11.35v-37.8h23.2v38.5q0,15.71-9,24.4T787.11,986.34Z" transform="translate(-93.5 -33.02)"/>
      <path class="cls-2" d="M868.11,986.34a71.72,71.72,0,0,1-17-2,48.23,48.23,0,0,1-13.5-5.2l7.6-17.2a48.21,48.21,0,0,0,11.15,4.65,43.48,43.48,0,0,0,11.95,1.75,24.91,24.91,0,0,0,5.35-.45,6.11,6.11,0,0,0,2.85-1.3,2.71,2.71,0,0,0,.9-2.05,3.35,3.35,0,0,0-2.1-3,22.56,22.56,0,0,0-5.55-1.85c-2.3-.5-4.81-1-7.55-1.6a68.51,68.51,0,0,1-8.25-2.25,31.9,31.9,0,0,1-7.6-3.7,17.28,17.28,0,0,1-5.55-6,18.91,18.91,0,0,1-2.1-9.35,20.61,20.61,0,0,1,3.65-11.85,25.09,25.09,0,0,1,10.9-8.55q7.26-3.2,18-3.2a65.67,65.67,0,0,1,14,1.5,44.36,44.36,0,0,1,12.4,4.6l-7.1,17.1a53.71,53.71,0,0,0-10.05-3.9,36.67,36.67,0,0,0-9.45-1.3,19.53,19.53,0,0,0-5.4.6,6,6,0,0,0-2.85,1.6,3.36,3.36,0,0,0-.85,2.2,3.18,3.18,0,0,0,2.1,2.85,22.46,22.46,0,0,0,5.55,1.75c2.3.47,4.84,1,7.6,1.5a62.84,62.84,0,0,1,8.25,2.2,32.7,32.7,0,0,1,7.55,3.7,17.56,17.56,0,0,1,5.55,6,18.44,18.44,0,0,1,2.1,9.2,20.34,20.34,0,0,1-3.65,11.75,25.21,25.21,0,0,1-10.85,8.6Q879,986.35,868.11,986.34Z" transform="translate(-93.5 -33.02)"/>
    </g>
    <g>
      <path class="cls-1" d="M742.31,1050.53v-50.4H746v50.4Zm3.24-24v-3.24h34.56v3.24Zm34.12,24v-50.4h3.68v50.4Z" transform="translate(-93.5 -33.02)"/>
      <path class="cls-1" d="M822.23,1050.82a18.6,18.6,0,0,1-8.36-1.76,12.27,12.27,0,0,1-5.43-5.33,18.56,18.56,0,0,1-1.91-8.82v-22h3.6v21.67q0,6.35,3.24,9.65t9.14,3.31a14.38,14.38,0,0,0,7.35-1.8,12.06,12.06,0,0,0,4.75-5.07,17.06,17.06,0,0,0,1.66-7.75v-20h3.6v37.58h-3.46v-10.44l.5,1.23a14.12,14.12,0,0,1-5.5,7A16.26,16.26,0,0,1,822.23,1050.82Z" transform="translate(-93.5 -33.02)"/>
      <path class="cls-1" d="M862.33,1050.53V997.11h3.6v28l-.72,6.55.58,6.55v12.31Zm18.86.29a17.66,17.66,0,0,1-9-2.3,16.62,16.62,0,0,1-6.34-6.63,23.34,23.34,0,0,1,0-20.37,16.75,16.75,0,0,1,6.34-6.56,17.66,17.66,0,0,1,9-2.3,18.92,18.92,0,0,1,9.54,2.41,17.42,17.42,0,0,1,6.63,6.7,21.77,21.77,0,0,1,0,19.91,17.36,17.36,0,0,1-6.63,6.73A18.81,18.81,0,0,1,881.19,1050.82Zm-.21-3.24a15.33,15.33,0,0,0,7.77-2,14.11,14.11,0,0,0,5.44-5.58,18.39,18.39,0,0,0,0-16.6,14.21,14.21,0,0,0-5.44-5.54,15.33,15.33,0,0,0-7.77-2,15.16,15.16,0,0,0-7.74,2,14.31,14.31,0,0,0-5.4,5.54,18.39,18.39,0,0,0,0,16.6,14.22,14.22,0,0,0,5.4,5.58A15.16,15.16,0,0,0,881,1047.58Z" transform="translate(-93.5 -33.02)"/>
    </g>
  </g>
  <g id="Calque_3" data-name="Calque 3">
    <g>
      <path class="cls-3" d="M721.16,468.86a3.22,3.22,0,0,0-3.95.13,12.09,12.09,0,0,1-9.17,2.35,5,5,0,0,0-3.24.27c-2.48,1.33-5.21,2.06-7.73,3.28a2.29,2.29,0,0,1-1.89.34c-1.77-.71-3.21-.08-4.57,1a1.81,1.81,0,0,1-1.65.58c-1.8-.53-3.65-1-4.14-3.27a1.94,1.94,0,0,0-1.47-1.6,4.27,4.27,0,0,1-.91-.38c-1.25-.67-1.3-.79-.82-2.16A5.64,5.64,0,0,0,680,463a24.75,24.75,0,0,1-4.66-5.74,11.43,11.43,0,0,0-5.31-5,6.22,6.22,0,0,1-3.41-2.75,4.7,4.7,0,0,0-2.59-2.39,5.17,5.17,0,0,1-2.61-2.42,14.58,14.58,0,0,1-2.24-7.14,5.53,5.53,0,0,0-2.5-4.91,9.47,9.47,0,0,1-3.3-3.41,28.58,28.58,0,0,1-2.09-6.06,26.69,26.69,0,0,1-.27-6.25,6.46,6.46,0,0,0-1-3.93c-.56-1.86-2-2.94-3.51-4a9.55,9.55,0,0,1-4-6.13c-.1-.55-.09-.9.53-1.17.83-.36.82-1.11.48-1.82a4.06,4.06,0,0,0-.91-1.36,23.71,23.71,0,0,1-4.25-5.22,2.84,2.84,0,0,0-.73.26,2.84,2.84,0,0,1,.73-.26,31.84,31.84,0,0,0-2.42-5,23.25,23.25,0,0,1-3.85-8.47,5.13,5.13,0,0,0-1.84-3,17.49,17.49,0,0,1-3.17-3.32,51.18,51.18,0,0,1-2-4.92,2.8,2.8,0,0,1,.15-2.28,3.43,3.43,0,0,1,1.41,2.07,6.24,6.24,0,0,0,1.2,2.33,5.42,5.42,0,0,1,1.14,2,10.84,10.84,0,0,0,4,5.51,3.78,3.78,0,0,0,2.62.76c1.54-.2,2.12-.74,2.31-2.29a7.53,7.53,0,0,0-.09-2.46,13.71,13.71,0,0,1,1.75-5.24c1.52-2.65,1.54-5.16-.8-7.41-.58-1.24-1.16-2.49-1.76-3.72a4.85,4.85,0,0,0-.6-1,3.55,3.55,0,0,0-4.36-.87,4.52,4.52,0,0,1-3,.63,9.37,9.37,0,0,0-5.19-.33c-.28.08-.64-.1-1-.17a4.91,4.91,0,0,0-1.9-.94c-2-.51-3.9-.65-5.45,1.07a5.52,5.52,0,0,1-2.77.82,4.77,4.77,0,0,0-2.6.85,7.44,7.44,0,0,1-4.17,1.17c-.85,0-1.45-.82-2.33-.75a10.7,10.7,0,0,0-3.9-2.36c-2.54-1.09-5.25-1.11-7.93-1.3a11.89,11.89,0,0,1-6-2,8.15,8.15,0,0,0-3.61-1.52,3,3,0,0,1-2.4-1.76c-1.12-2.11-2.17-2.52-4.47-1.87a22.64,22.64,0,0,1-5.84,1,10.47,10.47,0,0,0-3.72.67c-4.36,1.69-4.79,3.65-4.36,7,0,.38.17.75.22,1.13a6.53,6.53,0,0,1,.14,1.8c-.55,3.12-1.72,3.74-4.18,2.72a7.25,7.25,0,0,1-1.43-.82,16.8,16.8,0,0,1-2.19-1.75,9.4,9.4,0,0,0-5.72-2.64c-1.2-.18-2.38-.43-3.59-.55a6.13,6.13,0,0,1-5.45-4.39,5.27,5.27,0,0,0-3.66-3.46,12.73,12.73,0,0,0-3.37-.75,6.69,6.69,0,0,1-2.41-.5,7.53,7.53,0,0,0-4.84-.36,3.37,3.37,0,0,1-3.22-.85,11.87,11.87,0,0,0-4.51-2.74,1.74,1.74,0,0,1-1.12-.95,15.22,15.22,0,0,0,2.05-1.73,6.91,6.91,0,0,0,1.71-4.69,4.16,4.16,0,0,0-1.93-3.28,1.27,1.27,0,0,1-.25-.22,1.89,1.89,0,0,1-.16-2.67c.32-.44.7-.85,1-1.32,1-1.69.63-2.82-1.18-3.52-1.17-.45-2.39-.81-3.6-1.16a7.37,7.37,0,0,0-5.91.57,6.54,6.54,0,0,1-4.79.66,18.43,18.43,0,0,0-1.95-.32,13.29,13.29,0,0,0-7,.73,8.3,8.3,0,0,1-5.65.32,12.29,12.29,0,0,0-9.14.67,10.32,10.32,0,0,1-6,.9,17.56,17.56,0,0,0-8.47.69c-2.26.88-4.31,2.17-6.47,3.26A2,2,0,0,0,457.3,332l0,.05c-.35,0-.49.27-.61.53a1.41,1.41,0,0,0-.63.71,6.06,6.06,0,0,1-6.19,1,11.86,11.86,0,0,0-7.14-.45,3.84,3.84,0,0,1-3.56-.65A9.09,9.09,0,0,0,436,331.7a4.23,4.23,0,0,0-5.31,2.43c-.45.89-.79,1.82-1.18,2.73a16,16,0,0,1-6.2,7.31c-1.16.74-2.37,1.39-3.52,2.14a9.13,9.13,0,0,0-3.72,3.62c-.53.76-1,1.52-1.6,2.27a6.68,6.68,0,0,0-1.26,5.73,4.67,4.67,0,0,1-.35,3c-.69,1.6-1.4,3.2-2.1,4.8h0c-.36.14-.39.52-.52.79a15,15,0,0,1-7.44,6.91c-.9.41-1.8.8-2.73,1.15a7.88,7.88,0,0,0-4.38,3.8c-.33.63-.69,1.25-1,1.9a13,13,0,0,1-4.39,5.25,6.59,6.59,0,0,0-2.07,2.1,25.38,25.38,0,0,0-2.79,6.14,12,12,0,0,1-2.57,4.91,12.42,12.42,0,0,0-2.61,4.18,16.47,16.47,0,0,1-2.44,4.45c-.51.72-1.07,1.41-1.52,2.16-1.78,3-2.4,6,.05,9a6.16,6.16,0,0,1,1.19,5.29,11.78,11.78,0,0,0-.06,5.72,23.46,23.46,0,0,1,.7,9.32A42.38,42.38,0,0,1,374,449.68a5.8,5.8,0,0,0,0,6.38,9.67,9.67,0,0,1-.07,3.75,9.61,9.61,0,0,0-.32,2.44c0,2.26.39,4.38,2.46,5.77a3.85,3.85,0,0,1,1.06,1,48.16,48.16,0,0,0,6,6.87c1.72,1.75,3.42,3.53,5.18,5.24a14.53,14.53,0,0,1,2.49,5.69,10.66,10.66,0,0,0,1.11,3.26,25.27,25.27,0,0,0,8.22,8.64,23.53,23.53,0,0,1,6.76,5.73,7.24,7.24,0,0,0,2.13,2,11.39,11.39,0,0,0,3.17,2,14.07,14.07,0,0,1,3.74,2.66,14.37,14.37,0,0,0,1.6,1.42,7.42,7.42,0,0,0,5.72,1.47,11.24,11.24,0,0,0,4.7-2.45,18.32,18.32,0,0,1,3.39-1.65,39.05,39.05,0,0,1,8.06-1.62,6.37,6.37,0,0,1,4,.84c1.18.69,2.39,1.35,3.61,2a4.72,4.72,0,0,0,4.29.43c2.35-1.14,4.65-2.41,6.88-3.78a9.32,9.32,0,0,1,3.9-1.54,10.09,10.09,0,0,0,4.74-1.73,19,19,0,0,1,11.11-3.1,7.74,7.74,0,0,1,5.42,2,16.89,16.89,0,0,1,3.85,5.5,17.54,17.54,0,0,0,1.55,2.9,4.73,4.73,0,0,0,3.34,2.22,22.31,22.31,0,0,0,8.65-.65c1.63-.5,3.06-.78,4.43.46a15.65,15.65,0,0,0,1.1,1.19,12.71,12.71,0,0,1,3.57,5l.08.64a1.62,1.62,0,0,1,.41,0,1.62,1.62,0,0,0-.41,0,12.42,12.42,0,0,1-.46,6c-.3.88-.68,1.74-1,2.61a3.17,3.17,0,0,0-.16,2.41c.9,2.17.43,4.35.2,6.53a2.64,2.64,0,0,1-1.2,1.87c-2.27,1.72-2.9,4-1.54,6.52a38,38,0,0,0,6.1,8.79c2.18,2.2,4.07,4.63,6.06,7a13.55,13.55,0,0,1,3.18,7.49,9.44,9.44,0,0,0,1.27,4c.69,1.13,1.31,2.3,2,3.4a16.06,16.06,0,0,1,1.94,4.36,10.89,10.89,0,0,0,.49,1.74,7.59,7.59,0,0,1,.62,5.29,12.82,12.82,0,0,0,.72,7.76c.22.56.41,1.14.63,1.7a19.63,19.63,0,0,1,1.36,6.54,13.45,13.45,0,0,1-3.28,9.41A37.7,37.7,0,0,0,522.8,621a8.85,8.85,0,0,0-.9,3.15,17.2,17.2,0,0,1-1.27,4.94,17.84,17.84,0,0,0-1.36,6.75c0,1.26.05,2.53,0,3.8a10.24,10.24,0,0,0,1.46,5.67c.66,1.14,1.37,2.26,2,3.4a27.66,27.66,0,0,1,3.2,6.67,40.52,40.52,0,0,0,5.33,10.94,9.32,9.32,0,0,1,1.43,4,84.11,84.11,0,0,1,.63,9.38,4.44,4.44,0,0,0,.39,2.42c1.4,2.25,1.49,4.76,1.69,7.3.35,4.58,1.47,8.9,5,12.25a19.59,19.59,0,0,1,4.78,7.63c.45,1.24.88,2.49,1.42,3.7,1.28,2.91,1.9,6.09,3.51,8.88a8.55,8.55,0,0,1,.61,2,2.19,2.19,0,0,1-.54,2.11c-1.65,2-1.69,3-.38,5.21a13.67,13.67,0,0,1,1.93,4.53,3.26,3.26,0,0,0,1.23,2.07c2.25,1.64,4.44,3.44,7.34,3.88a3.61,3.61,0,0,0,1.79-.17c1.19-.4,2.37-.86,3.57-1.26a24.24,24.24,0,0,1,4.23-1.3,39.74,39.74,0,0,0,5.63-1.22,9.5,9.5,0,0,1,4.56-.29,8.17,8.17,0,0,0,6-.94,9.43,9.43,0,0,1,3.59-1.13A22,22,0,0,0,604.34,727c1.44-1.87,2.78-3.83,4.35-5.58a25.28,25.28,0,0,0,4.92-7.74,7.61,7.61,0,0,1,2.42-3.27c1.34-1.06,2.68-2.12,4-3.26a17.29,17.29,0,0,0,4.95-8.78c.55-2,1.06-4.11.45-6.18a3.85,3.85,0,0,1,1.23-4.15,11.68,11.68,0,0,1,2.33-1.83c2.16-1.28,4.33-2.55,6.54-3.74a8.59,8.59,0,0,0,3.29-2.92c2.33-3.63,2.21-7.61,1.71-11.65a3,3,0,0,0-.53-1.19,6.45,6.45,0,0,1-1.11-4.39,5.6,5.6,0,0,0-1.14-3.95,2.67,2.67,0,0,1-.56-2.31c.61-2.53,1.74-4.85,4.23-5.92a12.81,12.81,0,0,0,6.65-5.63,9.07,9.07,0,0,1,5.62-4.53,20.08,20.08,0,0,0,5.65-2.68c2.43-1.66,4.62-3.53,5.81-6.36a37.4,37.4,0,0,1,2.33-4.37,11.36,11.36,0,0,0,1.37-7.79c-.24-1.47-.59-2.92-.81-4.38a29.94,29.94,0,0,1-.21-10.68,16.35,16.35,0,0,0,.43-3.43,3.72,3.72,0,0,0-1-2.74,12,12,0,0,1-3.54-6,3.12,3.12,0,0,0-.35-.74A16.89,16.89,0,0,1,662,587a6.47,6.47,0,0,1,.55-5.09,4.9,4.9,0,0,0-.31-5.73c-.22-.3-.65-.64-.22-1.13a1.67,1.67,0,0,1,.46.16c.67.41,1.4.85,2.1.2l-.48-3.45c-.23-.4-.66-.7-.68-1.22a3.25,3.25,0,0,0,2.3-4,1.6,1.6,0,0,0-1.73-1.21,1.49,1.49,0,0,0-1.35,1.71c0,.88.12,1.76.18,2.64,0,.12.15.32.1.37s-.34.07-.49,0c-1.27.37-1.26,1.4-1.15,2.4a19.49,19.49,0,0,0,.55,2.32c-.56.13-.64-.26-.8-.5-1.19-1.83-1.08-3.88-.94-5.92a7.62,7.62,0,0,1,2.22-4.32c1.83-2.2,3.51-4.48,3.79-7.53a3.71,3.71,0,0,1,2.16-3.3c3-1.26,5-3.59,6.74-6.13,2-2.84,3.8-5.79,5.85-8.59a30.64,30.64,0,0,1,5.35-5.79,45.34,45.34,0,0,0,5.51-3.44,7.32,7.32,0,0,0,2.22-1.64,9.93,9.93,0,0,0,3.11-2.62,63,63,0,0,0,6.6-7.35A91.28,91.28,0,0,0,709.94,507a7.49,7.49,0,0,0,1-2.78,11,11,0,0,1,2.08-5.13,13.1,13.1,0,0,0,2.27-5.6,6.37,6.37,0,0,1,1.25-2.85c.56-.81,1.16-1.6,1.75-2.4a9.5,9.5,0,0,0,2-4.48,4.77,4.77,0,0,1,1.12-2.53,5.65,5.65,0,0,0,1.23-4.79,9.51,9.51,0,0,1,.21-3.76C723.26,470.63,722.91,470,721.16,468.86ZM377,457c-.09,0-.2-.12-.27-.1s.18.07.27.1Zm17.63-2.55h0v0Zm34.83-91.17c0-.06.07-.17.11-.26h0C429.53,363.06,429.44,363.17,429.46,363.23Zm145,202a.36.36,0,0,1-.34.08.36.36,0,0,0,.34-.08c0-.87,0-1.1.24-1.26C574.54,564.14,574.54,564.37,574.5,565.24Zm1.51-16.3h0c.17,0,.35,0,.54,0C576.36,549,576.18,549,576,548.94Zm18.37-179.87a.34.34,0,0,0,.33-.28h0A.34.34,0,0,1,594.38,369.07Zm4.09,3.36h0c0,.11,0,.22,0,.32C598.46,372.65,598.47,372.54,598.47,372.43Zm16.1,135.74c-.16-.05-.33-.14-.32-.32,0,.18.16.27.32.32s.24-.07.26-.14S614.66,508.12,614.57,508.17Zm3.06,55.64h0c.12.18.24.36.37.53C617.87,564.17,617.75,564,617.63,563.81Zm7.14,10.66a.83.83,0,0,1,0-.15.83.83,0,0,0,0,.15Zm-.24-91.78a1.89,1.89,0,0,0,.36-.85h0A1.89,1.89,0,0,1,624.53,482.69Zm.78,5.05c.1-.31.17-.62.24-.94h0C625.48,487.12,625.41,487.43,625.31,487.74Zm6.52-40.62h0Zm8.39,146.55a.3.3,0,0,1,0-.16h0A.3.3,0,0,0,640.22,593.67Z" transform="translate(-93.5 -33.02)"/>
      <path class="cls-3" d="M717.34,624.16a29.59,29.59,0,0,1-.36-6.09,9.07,9.07,0,0,0-1.59-5.45,8.34,8.34,0,0,1-1.32-3,4.68,4.68,0,0,0-1.11-2.18,1.49,1.49,0,0,0-1.94-.33,4.34,4.34,0,0,0-2.62,4.81c.17,1.46-.23,2.16-1.68,2.56a4.66,4.66,0,0,0-3.5,3.95c-.25,1.24-.52,2.48-.88,3.69a3.05,3.05,0,0,1-1.23,1.7,23,23,0,0,0-4,3.41,10.08,10.08,0,0,1-6.63,2.93,3,3,0,0,0-1.43.31,5.58,5.58,0,0,1-2.48.8,2.18,2.18,0,0,0-2.23,2.38,7.87,7.87,0,0,1-1.52,4.28,4.85,4.85,0,0,0-1,3.42c.44,2.81.52,5.72,1.94,8.3a5.27,5.27,0,0,1,.45,3.52c-.4,2.59-2.25,4.49-3.12,6.85-.1.28-.48.44-.73.66a8.77,8.77,0,0,0-2.24,3c-1,2.26-1.46,4.61,0,6.78a5.65,5.65,0,0,1,.87,4.84,6.81,6.81,0,0,0,.66,5,12.2,12.2,0,0,1,1.38,3.33A3.54,3.54,0,0,0,683,686c.87.48,1.73,1,2.63,1.38,1.21.55,2.52,1.17,3.79.44a31.47,31.47,0,0,1,5.89-2.66,5.29,5.29,0,0,0,3-2.45,17.87,17.87,0,0,0,2.23-5.81,34.8,34.8,0,0,0,1.34-5.1,28,28,0,0,1,1.74-5.49,85.13,85.13,0,0,0,3.75-10,67.91,67.91,0,0,1,3.4-9.29,13.4,13.4,0,0,0,1.49-6.52,5.55,5.55,0,0,1,1.06-3.73,4.07,4.07,0,0,0,.52-4.22,19.46,19.46,0,0,1-.65-1.86,1.44,1.44,0,0,1,0-1.2c.37.19.32.51.42.76a2.14,2.14,0,0,0,2,1.46,2.08,2.08,0,0,0,2-1.28,5,5,0,0,0,.37-4.15A20.16,20.16,0,0,1,717.34,624.16Z" transform="translate(-93.5 -33.02)"/>
    </g>
  </g>
  <g id="Calque_5" data-name="Calque 5">
    <path class="cls-2" d="M417.49,381.56c-9.49-.81-24-.72-40.25,1A228.93,228.93,0,0,0,352,386.74l-3.21.76-1.61.38c-.55.14-1.21.32-1.77.5a64.21,64.21,0,0,0-6.38,2.48c-4,1.8-7.88,3.72-11.65,5.62-15,7.61-28.82,14.75-39.73,17.93-5.41,1.61-10.11,2.15-13.31,1.4a8.93,8.93,0,0,1-3.47-1.51,5.14,5.14,0,0,1-.78-.65l-.26-.24.22.27a5.68,5.68,0,0,0,.71.73,9.55,9.55,0,0,0,3.37,1.95c3.22,1.15,8.14,1.14,13.81.1,11.42-2,26.06-7.82,41.45-14.1,3.85-1.56,7.75-3.15,11.66-4.57,1.94-.71,3.9-1.38,5.76-1.87a23.57,23.57,0,0,1,2.81-.58l3.1-.53c8.24-1.36,16.52-2.24,24.37-2.87,15.71-1.26,29.71-1.55,38.95-2.16,3.09-.2,10.81-.53,17.8-.81s13.28-.66,13.45-1.83-5.73-2.57-12.48-3.63S420.49,381.83,417.49,381.56Z" transform="translate(-93.5 -33.02)"/>
    <path class="cls-2" d="M358,357.22a38.61,38.61,0,0,0-6.35-.89c-2.47-.17-5.21-.23-8.14-.23a160,160,0,0,0-18.37,1.21c-6,.72-11.58,1.75-15.61,2.61s-6.54,1.53-6.54,1.53,2.55-.36,6.59-.79,9.57-.89,15.52-1.12,12.3-.25,18-.11,10.71.35,13.94.63a43.89,43.89,0,0,1,6.16.95c2.39.54,4.46,1.37,4.7,1s-1.52-1.75-3.82-2.79A32.14,32.14,0,0,0,358,357.22Z" transform="translate(-93.5 -33.02)"/>
    <path class="cls-2" d="M724.73,263.48c2.37-1.14,5.89-3,10.07-4.62a82,82,0,0,1,13.58-4.1,74.24,74.24,0,0,1,12.24-1.48l2.19-.07,1.66,0,1.43,0-1.4-.18-1.65-.21c-.64-.07-1.37-.11-2.17-.18a66.28,66.28,0,0,0-26.52,3.61,49.76,49.76,0,0,0-10.24,4.95l-1.79,1.2c-.76.54-1.6,1.19-2.4,1.81-1.56,1.29-2.84,2.56-2.66,2.82s1.7-.51,3.37-1.42c.84-.43,1.73-.89,2.48-1.3Z" transform="translate(-93.5 -33.02)"/>
    <path class="cls-2" d="M716.12,359.37c3.16.07,7.92,0,13.3.38a113.84,113.84,0,0,1,16.86,2.44,103.63,103.63,0,0,1,14.16,4.27l2.44,1,1.83.8,1.58.68-1.47-.85-1.72-1c-.68-.37-1.46-.76-2.32-1.21A89.25,89.25,0,0,0,747,360.22a87.88,87.88,0,0,0-17-3.57,63.74,63.74,0,0,0-13.59-.1l-2.57.32c-1.1.16-2.35.4-3.54.63-2.36.51-4.42,1.16-4.37,1.54s2.09.39,4.36.34c1.14,0,2.34,0,3.37,0Z" transform="translate(-93.5 -33.02)"/>
    <path class="cls-2" d="M911.28,366.7c5.24.31,13.15.29,21.87,1.51s18.28,3.9,26.09,8.73a57.26,57.26,0,0,1,10.26,8.18c3,2.91,5.49,5.75,7.66,8.12,4.3,4.79,7.24,7.6,7.24,7.6s-2.55-3.1-6.28-8.25c-1.89-2.57-4.11-5.63-6.8-8.86a56.89,56.89,0,0,0-9.85-9.48,58,58,0,0,0-6.21-4,64.79,64.79,0,0,0-6.75-3.17,73.52,73.52,0,0,0-13.93-3.95,88.63,88.63,0,0,0-22.6-1.1c-1.77.14-6.18.53-10.11,1.13s-7.41,1.34-7.4,2,3.4.93,7.19,1.11Z" transform="translate(-93.5 -33.02)"/>
    <path class="cls-2" d="M825,316.63c7.4-2,18.38-5.64,30.83-9.62s26.39-8.33,39.52-12.1,25.44-7,34.48-9.26c4.52-1.13,8.22-2,10.79-2.62l4-.95-4.05.48c-2.59.31-6.34.77-10.92,1.41-9.15,1.27-21.66,3.24-35,5.92s-27.56,6-40.15,9.64a271.21,271.21,0,0,0-30.61,10.38l-5.65,2.43c-2.42,1.05-5.18,2.32-7.78,3.56-5.18,2.53-9.68,5.07-9.38,6s5.11-.18,10.43-1.58c2.66-.67,5.46-1.44,7.87-2.13Z" transform="translate(-93.5 -33.02)"/>
    <path class="cls-2" d="M930.93,346c3.85-1.94,9.48-5.23,15.86-8.91s13.51-7.76,20.25-11.46,13.08-7,17.75-9.42l5.57-2.83,2.07-1-2.15.79c-1.39.51-3.38,1.24-5.8,2.18C979.62,317.2,973,319.87,966,323s-14.39,6.7-20.88,10.17a159.83,159.83,0,0,0-15.61,9.3c-1.18.82-4.14,2.85-6.71,4.83s-4.76,3.88-4.5,4.35C918.84,352.51,928.48,347.19,930.93,346Z" transform="translate(-93.5 -33.02)"/>
    <path class="cls-2" d="M825.59,215c9,.29,27.11-1,43-2.37A101.22,101.22,0,0,0,880,211.08a43.87,43.87,0,0,0,9.14-2.86,28.83,28.83,0,0,0,5.61-3.26c.63-.44,1.06-.86,1.38-1.11l.47-.39-.51.33c-.34.21-.81.57-1.47.93a29.87,29.87,0,0,1-5.76,2.56,44.53,44.53,0,0,1-9,1.87,110.12,110.12,0,0,1-11.11.54c-15.8.07-33.85.37-42.68,1.38-3,.34-14.74,1.46-14.75,2.57S822.77,214.91,825.59,215Z" transform="translate(-93.5 -33.02)"/>
    <path class="cls-2" d="M840.24,282.88c1-9-2.81-36.42-2.81-36.42s-2.17,27.31-.79,36.17c.23,1.48.94,7.39,2,7.39S840.08,284.29,840.24,282.88Z" transform="translate(-93.5 -33.02)"/>
    <path class="cls-2" d="M237.77,279.54c1-9-2.81-36.42-2.81-36.42s-2.17,27.31-.79,36.17c.23,1.48.94,7.39,2,7.4S237.61,281,237.77,279.54Z" transform="translate(-93.5 -33.02)"/>
    <path class="cls-2" d="M705.8,387.16a36.89,36.89,0,0,0,3.26-13.37,54.23,54.23,0,0,0-7.4-31.06c-.5-.81-.94-1.56-1.36-2.2s-.82-1.15-1.14-1.59l-1-1.35.67,1.51c.21.49.48,1.08.77,1.75s.55,1.49.88,2.36a60.44,60.44,0,0,1,3.14,13.68,68.79,68.79,0,0,1-.16,16c-.61,5-1.73,9.3-2.27,12.23l-.5,2.35c-.24,1-.58,2.14-.83,3.26-.58,2.2-1.09,4.26-.46,4.64s2-1.14,3.41-3c.65-1,1.29-2,1.84-2.94Z" transform="translate(-93.5 -33.02)"/>
    <path class="cls-2" d="M720.26,158.86c2.44-3.88,5.11-10.36,6.86-18a93.21,93.21,0,0,0,1.93-12c.39-4.09.61-8.06,1.17-11.82a82.12,82.12,0,0,1,5.28-19.42c1-2.47,2-4.45,2.65-5.81s1.1-2.1,1.1-2.1-.55.63-1.51,1.81-2.28,2.93-3.77,5.18a73.5,73.5,0,0,0-8.87,18.88c-1.21,3.88-2,8-2.83,11.82s-1.73,7.51-2.74,11c-2,6.94-4.24,12.9-5.46,17-.38,1.38-1.54,4.73-2.57,7.83s-1.88,6-1,6.53,3-1.44,5-4A64.9,64.9,0,0,0,720.26,158.86Z" transform="translate(-93.5 -33.02)"/>
    <path class="cls-2" d="M738,134.31c3.16-.9,7.65-2.81,12.81-4.1,1.3-.3,2.61-.59,4-.79l4.45-.6a35.45,35.45,0,0,0,4.8-1,23.53,23.53,0,0,0,4.59-1.84,35.66,35.66,0,0,0,7.2-5.17c2-1.81,3.66-3.58,5-5.09s2.44-2.79,3.19-3.66l1.15-1.38s-2,1.59-5.19,4c-1.61,1.19-3.51,2.58-5.67,3.94a36.39,36.39,0,0,1-7.14,3.58,23.86,23.86,0,0,1-8.1,1.33c-1.45,0-3,.05-4.52.13a40.6,40.6,0,0,0-18.35,5.53c-1,.59-3.4,2-5.44,3.55s-3.74,3.06-3.41,3.75,2.47.22,4.79-.43S737,134.6,738,134.31Z" transform="translate(-93.5 -33.02)"/>
    <path class="cls-2" d="M505.44,91.47c-1.24-5.49-5.65-15.79-7.87-25.38a78.75,78.75,0,0,1-2-12.75c-.05-.84-.13-1.62-.15-2.3l0-1.75,0-1.52-.28,1.47c-.09.48-.2,1.07-.33,1.73s-.19,1.44-.31,2.28a64.73,64.73,0,0,0-.22,13.17,82.83,82.83,0,0,0,2.73,15.08,59.71,59.71,0,0,0,4.15,11.15c.86,1.69,4.24,8.34,5.45,7.89S505.8,93.19,505.44,91.47Z" transform="translate(-93.5 -33.02)"/>
    <path class="cls-2" d="M657.48,125.22c2-2.9,5.08-9.33,8.86-14.3a33.43,33.43,0,0,1,5.56-6,19.76,19.76,0,0,1,2.09-1.51l.82-.51-.9.33a17.55,17.55,0,0,0-2.37,1.07,29.78,29.78,0,0,0-6.73,5.06,46.79,46.79,0,0,0-6.2,7.57,35.08,35.08,0,0,0-3.56,6.72c-.21.57-.73,2-1.1,3.28s-.55,2.53-.18,2.71,1.11-.73,1.86-1.77S657.17,125.69,657.48,125.22Z" transform="translate(-93.5 -33.02)"/>
    <path class="cls-2" d="M473.29,110.14c-3.87-2.35-10.1-5.1-17.26-7.91-1.77-.71-3.75-1.41-5.24-2.06A11.11,11.11,0,0,1,447,97.58a23.15,23.15,0,0,1-3.1-4.4c-.94-1.66-1.8-3.43-2.61-5.22a145.33,145.33,0,0,1-7.17-19.42c-.77-2.61-1.33-4.77-1.71-6.28l-.57-2.35s0,.88.06,2.4.18,3.76.42,6.48a116,116,0,0,0,3.78,20.74c.55,2,1.17,4,2,6a29,29,0,0,0,3.16,6.12,17.29,17.29,0,0,0,2.52,2.87,18.61,18.61,0,0,0,3,2.22c1,.61,2,1.1,3,1.53l2.64,1.23a133.89,133.89,0,0,0,17.47,7c2.88.81,14.24,4.44,15.11,2.58S475.74,111.61,473.29,110.14Z" transform="translate(-93.5 -33.02)"/>
    <path class="cls-2" d="M571.78,91.91c3.55-11,5.67-46.14,5.67-46.14s-9.6,33.52-10.11,44.92c-.09,1.9-.69,9.46.6,9.73S571.22,93.64,571.78,91.91Z" transform="translate(-93.5 -33.02)"/>
    <path class="cls-2" d="M186.36,282.77c-3-1.69-7.76-3.72-13.13-6s-11.34-5-16.87-7.66c-2.77-1.35-5.49-2.69-8.06-3.77a43.79,43.79,0,0,0-7.1-2.38,25,25,0,0,0-5-.68c-.59-.05-1.06,0-1.37,0h-.48l.47.1c.3.07.75.12,1.31.28a26.52,26.52,0,0,1,4.58,1.6,47.22,47.22,0,0,1,6.2,3.44c2.24,1.44,4.61,3.15,7.16,4.9a146.2,146.2,0,0,0,16.14,9.67,72,72,0,0,0,13.65,5.54c1.13.29,3.95,1.05,6.56,1.5s5,.58,5.27-.15-1.63-2-3.78-3.27S187.3,283.3,186.36,282.77Z" transform="translate(-93.5 -33.02)"/>
    <path class="cls-2" d="M175.34,356.41c-4.34-3.23-11.37-7.23-19.21-11.82-3.92-2.29-8-4.73-12.12-7.34-2.07-1.27-4.07-2.64-6.1-4l-3-2.07c-1-.67-2-1.37-2.9-2.09-3.85-2.76-7.35-5.7-10.57-8.44a64.34,64.34,0,0,0-9.19-7.17,17.75,17.75,0,0,0-7.45-2.63,11.78,11.78,0,0,0-2.12,0L102,311l.71.09a11.33,11.33,0,0,1,2,.42,16.85,16.85,0,0,1,6.24,3.73,65.53,65.53,0,0,1,7.29,8.26,133,133,0,0,0,9.29,10.35c1.71,1.76,3.56,3.42,5.39,5.13s3.77,3.33,5.73,4.88c3.88,3.18,7.89,6.07,11.76,8.69a115.29,115.29,0,0,0,20.07,11.09c3.38,1.37,16.66,6.85,17.88,4.68S178,358.47,175.34,356.41Z" transform="translate(-93.5 -33.02)"/>
    <path class="cls-2" d="M359.76,148.8c.15-4.5-.19-11.23-.52-19s-.84-16.54-1.78-24.77a133.07,133.07,0,0,0-4-21.22c-.4-1.35-.73-2.57-1.07-3.63s-.7-2-1-2.71l-.84-2.31.33,2.41c.11.77.24,1.72.39,2.79s.21,2.33.33,3.69a175.41,175.41,0,0,1,.27,20.89c-.28,8-.87,16.62-1,24.46s.36,14.89,1.42,19.46l.84,3.67c.4,1.56,1,3.35,1.5,5,1.2,3.34,2.68,6.17,3.69,6s1.17-3.2,1.2-6.44c.07-1.64.07-3.35.06-4.81S359.74,149.54,359.76,148.8Z" transform="translate(-93.5 -33.02)"/>
    <path class="cls-2" d="M354.72,145.47c-4.79-6.64-16.84-18-27.68-27.66s-20.48-17.68-20.48-17.68,7.6,9.81,16.77,20.88,19.9,23.41,26.23,28.49c2.11,1.7,10.27,8.75,11.66,7.52S356.23,147.57,354.72,145.47Z" transform="translate(-93.5 -33.02)"/>
    <path class="cls-2" d="M416.68,126.31a45.25,45.25,0,0,1-5.12-7,24.36,24.36,0,0,1-2.14-5.06,50.28,50.28,0,0,1-1.31-5.73c-.35-1.93-.66-3.84-1-5.59a41,41,0,0,0-1.24-4.61,24.45,24.45,0,0,0-1.27-3l-.56-1,.32,1.12a26.45,26.45,0,0,1,.62,3.08,45.72,45.72,0,0,1,.37,4.57c0,1.86.07,3.78.1,5.6a43.35,43.35,0,0,0,.55,6.2,23.62,23.62,0,0,0,1.88,6.06,21.07,21.07,0,0,0,6.16,7.81,21.46,21.46,0,0,0,3.85,2.33c1.6.74,3.15,1.06,3.38.61s-.83-1.4-1.92-2.5S417.09,126.83,416.68,126.31Z" transform="translate(-93.5 -33.02)"/>
    <path class="cls-2" d="M300.69,213c-3-1.16-6.85-2.36-11.26-3.62l-7-2c-2.45-.67-4.92-1.34-7.28-2.13a35.59,35.59,0,0,1-6.65-2.91,40.28,40.28,0,0,1-6.21-4.65c-2.1-1.85-4.24-3.94-6.55-6-1.15-1-2.35-2.06-3.62-3l-1.9-1.42c-.65-.45-1.32-.87-2-1.3a50.58,50.58,0,0,0-8-4.2,53.06,53.06,0,0,0-8-2.66,54.13,54.13,0,0,0-14.06-1.55,51.57,51.57,0,0,0-9.42,1.1c-1.1.23-1.93.49-2.5.62l-.87.23.89,0c.58,0,1.43-.09,2.52-.09a55.63,55.63,0,0,1,9.06.76,54,54,0,0,1,12.48,3.75c1.12.46,2.21,1.05,3.33,1.59s2.22,1.18,3.28,1.9a49.44,49.44,0,0,1,6.31,4.62l1.48,1.32c.49.45.94.94,1.42,1.4.95.91,1.84,1.95,2.76,3,1.82,2.11,3.66,4.42,5.72,6.74a47.32,47.32,0,0,0,7.08,6.7,39.37,39.37,0,0,0,8.54,4.8,80.51,80.51,0,0,0,8.06,2.8c2.5.73,4.9,1.39,7.19,2a90.55,90.55,0,0,0,11.88,2.2c2.18.23,7.61.89,12.57,1s9.43-.28,9.72-1.74-3.56-3.23-7.9-5S302.59,213.72,300.69,213Z" transform="translate(-93.5 -33.02)"/>
    <path class="cls-2" d="M231.18,207.08a42.81,42.81,0,0,0-14.52.09,39.48,39.48,0,0,0-9,2.64,34.47,34.47,0,0,0-8.18,5,75,75,0,0,0-10.7,11.5c-2.51,3.16-4.13,5.13-4.13,5.13s2-1.56,5-4.16a96.34,96.34,0,0,1,11.91-9.08,34.61,34.61,0,0,1,7.61-3.41,44.32,44.32,0,0,1,8-1.64c5.24-.62,10.05-.52,13.27-.79,1.07-.11,3.77-.2,6.24-.42s4.73-.56,4.83-1.31-1.93-1.53-4.26-2.2S232.24,207.26,231.18,207.08Z" transform="translate(-93.5 -33.02)"/>
    <path class="cls-2" d="M186.59,363.4c-9.66-2.93-29.9-5-47.7-6.69l-12.7-1.13-5.63-.49c-1.78-.16-3.44-.26-4.9-.46a13,13,0,0,1-6.62-2.42,6.71,6.71,0,0,1-1.37-1.52l-.37-.63a6.76,6.76,0,0,0,1.31,2.52,9.92,9.92,0,0,0,2.54,2.18,20.24,20.24,0,0,0,3.93,1.8c.74.25,1.52.49,2.33.72l2.47.69,5.41,1.47c3.79,1,7.94,2.1,12.25,3.17,17.24,4.27,37.05,8.35,47.06,8.61,3.34.09,16.61.87,17-1.39S189.63,364.32,186.59,363.4Z" transform="translate(-93.5 -33.02)"/>
    <path class="cls-2" d="M689.85,398.05c4-.83,8.89-2.12,14.37-3l2.08-.31,2.13-.22c1.44-.13,2.92-.16,4.43-.25a66.69,66.69,0,0,1,9.5.62,97.21,97.21,0,0,1,20.33,5.32c6.87,2.54,13.73,5.59,20.38,8.62s13.13,6,19.3,8.23a89.62,89.62,0,0,0,16.9,4.61,55.06,55.06,0,0,0,11.88.69c1.4,0,2.49-.2,3.23-.28l1.12-.12h-1.12c-.73,0-1.81,0-3.19-.09A55.72,55.72,0,0,1,799.8,420a92.16,92.16,0,0,1-15.77-6c-5.72-2.7-11.72-6.13-18.07-9.67s-13-7.15-20-10.26a95.27,95.27,0,0,0-21.46-6.94,59.92,59.92,0,0,0-20.55-.31,82.84,82.84,0,0,0-15,4.07c-2.6.93-8.91,3.33-14.57,5.23-2.84.93-5.55,1.73-7.58,2.35s-3.36,1.11-3.37,1.63,1.31.87,3.42,1.07a42.25,42.25,0,0,0,8-.25C680.94,400.15,687.35,398.56,689.85,398.05Z" transform="translate(-93.5 -33.02)"/>
    <circle class="cls-2" cx="744.09" cy="208.76" r="11.95"/>
    <circle class="cls-2" cx="264.9" cy="47.43" r="11.95"/>
    <circle class="cls-2" cx="217.31" cy="72.67" r="11.95"/>
    <circle class="cls-4" cx="91.8" cy="190.51" r="11.95"/>
    <circle class="cls-4" cx="335.66" cy="23.91" r="11.95"/>
    <circle class="cls-4" cx="488.02" cy="11.95" r="11.95"/>
    <circle class="cls-4" cx="556.29" cy="30.55" r="11.95"/>
    <circle class="cls-4" cx="406.45" cy="13.99" r="11.95"/>
    <circle class="cls-2" cx="641.41" cy="64.11" r="11.95"/>
    <circle class="cls-4" cx="799.49" cy="169.13" r="11.95"/>
    <circle class="cls-2" cx="890.74" cy="362.34" r="11.95"/>
    <circle class="cls-4" cx="902.7" cy="281.87" r="11.95"/>
    <circle class="cls-2" cx="679.94" cy="333.4" r="11.95"/>
    <circle class="cls-2" cx="603.36" cy="306.27" r="11.95"/>
    <circle class="cls-5" cx="584.43" cy="59.19" r="11.26"/>
    <circle class="cls-5" cx="308.81" cy="50.48" r="11.26"/>
    <circle class="cls-5" cx="75.43" cy="389.8" r="11.26"/>
    <circle class="cls-5" cx="806.67" cy="389.8" r="11.26"/>
    <circle class="cls-5" cx="178.17" cy="383.3" r="11.26"/>
    <circle class="cls-5" cx="166.92" cy="109.17" r="11.26"/>
    <circle class="cls-5" cx="720.88" cy="109.17" r="11.26"/>
    <circle class="cls-5" cx="858.17" cy="246.26" r="11.26"/>
    <circle class="cls-5" cx="680" cy="220.02" r="11.26"/>
    <circle class="cls-5" cx="731.85" cy="392.56" r="11.26"/>
    <circle class="cls-5" cx="216.4" cy="226.01" r="11.26"/>
    <circle class="cls-5" cx="35.18" cy="226.01" r="11.26"/>
    <circle class="cls-2" cx="756.05" cy="121.77" r="11.95"/>
    <circle class="cls-2" cx="688.69" cy="79.01" r="11.95"/>
    <circle class="cls-2" cx="106.51" cy="145.27" r="11.95"/>
    <circle class="cls-2" cx="141.38" cy="208.33" r="11.95"/>
    <circle class="cls-2" cx="18.38" cy="324.72" r="11.95"/>
    <circle class="cls-4" cx="11.95" cy="276.16" r="11.95"/>
    <circle class="cls-2" cx="209.13" cy="332.32" r="11.95"/>
    <path class="cls-6" d="M823.33,207.7a78.13,78.13,0,0,0,13.21-9.16c2.52-2.08,5.08-4.32,7.65-6.76a45.79,45.79,0,0,0,7-8.22,22.21,22.21,0,0,0,3.59-9.62,17.1,17.1,0,0,0-1.18-8.26,11.7,11.7,0,0,0-3.2-4.49l-.66-.53-.53-.34-.43-.28.36.36.42.43.52.64a11.3,11.3,0,0,1,2.06,4.6,15.31,15.31,0,0,1-.27,7.19,19.4,19.4,0,0,1-4.19,7.41,46.68,46.68,0,0,1-7.09,6.4c-2.63,2-5.37,4-7.9,5.83-5.08,3.73-9.58,7-12.34,9.51-.92.84-3.28,2.83-5.34,4.77s-3.81,3.82-3.37,4.57,2.8,0,5.35-1.05S822.25,208.25,823.33,207.7Z" transform="translate(-93.5 -33.02)"/>
    <path class="cls-2" d="M353.22,263c-1.53-2-4.82-4.1-8.79-5a23.57,23.57,0,0,0-6.25-.57,56,56,0,0,0-6.09.63A85.17,85.17,0,0,1,322,259.26a27.15,27.15,0,0,1-3.16-.06l-1.18-.12,1.12.36a27.52,27.52,0,0,0,3.12.7,63.64,63.64,0,0,0,10.21.55c1.93,0,3.89,0,5.79.17a24.25,24.25,0,0,1,5.28.91,23.66,23.66,0,0,1,7.34,3.51,11.82,11.82,0,0,1,2.6,2.56c.89,1.15,1.43,2.48,1.95,2.44s.71-1.56.25-3.29A10.87,10.87,0,0,0,353.22,263Z" transform="translate(-93.5 -33.02)"/>
    <path class="cls-7" d="M837.09,261.41" transform="translate(-93.5 -33.02)"/>
    <path class="cls-2" d="M620.44,106.88c.72,0,1.45.06,2.34.13a16.3,16.3,0,0,0,3.77,0,8.38,8.38,0,0,0,2.68-.85,9.27,9.27,0,0,0,2.21-1.7,21.73,21.73,0,0,0,1.46-1.7c.39-.52.83-1.07,1.3-1.68a69.77,69.77,0,0,0,4.93-7.52A59.11,59.11,0,0,0,643,85.25a63,63,0,0,0,2.41-8.12c.56-2.56,1-4.89,1.21-6.86s.43-3.59.52-4.71.15-1.74.15-1.74l-.51,1.65c-.31,1.06-.79,2.59-1.42,4.43s-1.41,4-2.36,6.32a78.31,78.31,0,0,1-3.48,7.2,84.9,84.9,0,0,1-9.67,13.73l-1.3,1.5c-.41.5-.84,1-1.18,1.36a4.63,4.63,0,0,1-.85.76,1.78,1.78,0,0,1-.65.29,12.18,12.18,0,0,1-2.5.22,17,17,0,0,0-3.05.35,19.69,19.69,0,0,0-2.85.84,16.54,16.54,0,0,0-3.57,1.88c-2.24,1.56-3.55,3.57-3.06,4.12s2.33-.36,4.4-.88A18.62,18.62,0,0,1,620.44,106.88Z" transform="translate(-93.5 -33.02)"/>
  </g>
  <g id="Calque_6" data-name="Calque 6">
    <path class="cls-1" d="M449.92,880l51.15-9.46a91.63,91.63,0,0,0,13.27-3.47,41.8,41.8,0,0,0,13.14-7.39A37.67,37.67,0,0,0,537,846.92a76,76,0,0,0,4.73-13.83c1.13-4.43,2-8.68,3.12-12.49a94.78,94.78,0,0,1,3.9-11.07c1.53-3.71,3.26-7.45,5.07-11.32l.68-1.45.34-.73.18-.37.18-.47,1.49-3.77c.54-1.28.85-2.54,1.25-3.81l.56-1.92.28-1,.21-.94.83-3.8c.28-1.27.42-2.48.63-3.74.44-2.52.63-4.89.91-7.34.41-4.73.67-9.42.85-13.76l.31-6.43.19-3.05.1-1.52.14-1.45A79.58,79.58,0,0,1,564.49,732a5.09,5.09,0,0,0,0-2.6,9,9,0,0,0-.44-1.3,7.8,7.8,0,0,0-.72-1.31,25.1,25.1,0,0,0-5.88-5.72,35.12,35.12,0,0,0-8.88-4.77c-3.49-1-5.48-1-9.43-.11a14,14,0,0,0-5.84,3.69,18.57,18.57,0,0,0-1.54,1.73,11.28,11.28,0,0,0-1.28,2,11,11,0,0,0-1.3,4.31,117.66,117.66,0,0,0,.4,15.1l.15,1.79.18,1.71.37,3.42.81,6.5c.56,4.29,1,8.23,1.35,12.12.11,1.87.3,3.82.29,5.59,0,.9.07,1.85,0,2.7l-.1,2.61,0,.66-.07.62-.14,1.24a21,21,0,0,1-.33,2.47l-.46,2.39-.06.31-.1.39-.22.78-.43,1.59c-1.16,4.24-2.34,8.62-3.36,13.17a116.47,116.47,0,0,0-2.34,14c-.47,4.67-.64,9-1,13.06a60.58,60.58,0,0,1-1.7,11.2c-.2.88-.51,1.64-.76,2.47s-.59,1.58-1,2.28a20.77,20.77,0,0,1-2.61,4.14,29.23,29.23,0,0,1-8.37,6.77,81.44,81.44,0,0,1-11.14,5Z" transform="translate(-93.5 -33.02)"/>
    <path class="cls-1" d="M501.61,789.9S489.87,800.66,469,806.53s-47.6,0-52.81,1-9.13,2.28-10.76,5.54-7.83,14.78-17.94,19.62-23.14,4.51-31.29,6.46-17.94,5.55-19.89,9.79c0,0,1.95-11.09,18.91-14.68s26.73-7.17,30.32-11.08,8.47-10.43,9.13-14.35a40.65,40.65,0,0,0-13.7-.65c-7.17,1-21.19,7.83-23.8,8.8s-11.41,4.79-20.86,4.84-18.91,2.66-22.17,5.6-8.48,7.82-11.74,10.43c0,0,2-9.45,7.82-13s9.46-6.85,19.24-8.48,14.08-1.95,19.92-4.56,22.46-10.44,33.22-13a173.67,173.67,0,0,1,37.5-4.24c12.06,0,37.82-2,47.6-4.57s23.08-10.1,29.15-16.62,8.34-13.7,8.34-24.78c0,0-8.15,10.1-14.34,14.67s-19.89,13.69-28,15.32-22.5,5.22-34.56,4.89-23.8-2.28-30.65-3.26-17.93.33-23.47,3.91-21.36,9-25.92,9.62-21.36,4.89-25.6,5.06-22.49,1.95-28.2,3.42-22.82,9.29-26.08,12.71c0,0,6.52-8.47,14.83-13.69s20.22-6.19,25.11-7.33,18.09-4.08,20.38-4.89a24.19,24.19,0,0,0,5.54-2.78s-9-3.58-13-4.89-15.4-4.72-24.49-3.09-25.07,6.68-28.33,8.31a51.44,51.44,0,0,1-13.53,4.08c-5.05.81-4.4-.33-4.4-.33a136.47,136.47,0,0,0,19.89-8.15,135.45,135.45,0,0,1,23.31-10c6.35-2,16.62-5,35.21,1s28.85,4.24,32.11,3.59,13.7-9.62,19.89-11.74,28.69-1.79,35.7-1.14,23,1,29.83-4.4,16.3-17.61,19.08-32.93,2.28-68.47,2.93-78.41,7.83-71.89,10.27-85.75,9-50.37,10.11-59.82,3.09-25.27,0-43.69-26.09-33.91-32-37.5-22.66-12.22-32.61-14.67-28.2-5.38-34.39-5.7-36.85-1.14-44-1.14-26.24.32-35.37-2-18.75-4.73-24.45-7.66-16.31-9-18.1-10.6-11.41-9.45-13.53-12.39a28.23,28.23,0,0,1-3.26-6s12.72,11.09,21.36,15,24.61,9.29,30.48,9.94,42.38.82,51-.49,12.72-3.42,12.72-3.42-.82-13.37-10.76-22.5c0,0-26.08,2.45-35.7-1.95s-9.11-8.16-9.95-9.13c0,0,14,7.82,26.58,6.52s15-1.3,15-1.3-8.47-9.62-10.1-11.9c0,0-.66-1.15,2.12-1s11.9,3.26,21,16.62,13.85,23.64,15,24,23,1.14,33.58,2.61a189.54,189.54,0,0,1,32.93,7.66c9.46,3.26,30,12.71,37.66,17.44s19.89,13.37,19.89,13.37,1.79-11.09-3.43-21.36-16.3-28-31.13-37.82-30-19.88-38.64-23.8-31.62-12.39-40.42-14.83-29.84-4.89-36.36-5.05-24.78-.17-34.39,1.46-30.65,12.07-37,16.14-32.11,19.4-33.91,20.54-7,4.08-8.64,6-5.05,13.86-9,20.71-13.53,21.68-23.48,27.06-27.38,3.91-27.38,3.91c-1.8-2.28-.82-3.59.81-4.08s9.13,0,13-.65,14-5.87,18.43-12.55,11.9-18.42,12.87-29.18c0,0,.49-.49-1.95-.65s-8.15,3.09-19.73,3.58-24.45-.16-34.23-5.21-18.91-14.67-23.8-19.08-15-11.08-22.17-11.41-13.21-2.28-22.17,2c0,0-4.4,3.1-6.36,3.1s-.49-3.1,2.93-5.38,4.24-4.08,14.68-6.2,21.62,1.77,26.08,3.43c7,2.6,15.49,9.78,19.07,12.55s14.51,11.25,22.66,12.88,18.75,3.09,29.34.65,29.18-12.55,32.12-14.18,31.62-20.71,33.42-22.5c0,0-11.74.49-20.05-.82s-24.78-4.23-34.4-9.29-23.48-11.9-29.67-17.77S171,271.84,168.24,267,157,248.53,155.52,245.59s-2.44-3.75-2.61-6.19,4.57,4.73,6.69,7,14.18,15.32,17,18.42,16.47,16.3,19.07,18.42,17.12,10.27,22.17,12.23a162.92,162.92,0,0,0,17.45,4.89c.49,0-.65-12.72-3.92-20.87s-9.94-18.09-12.87-21.84-3.1-5.06-2.12-5.38,5.7,2.12,9.29,5.54,11.41,13.86,14,18.75,10.59,25.75,10.59,25.75,28.7,3.26,39.45,1.63,43.37-7.5,53.31-7.17a149,149,0,0,0,15.83-.17s2.27-10.43-1.16-18.25-7.33-14.51-13-17.12-5.05-4.07-3.91-4.56,6.68,1.14,8.48,2.12c0,0-7.34-12.88-8.16-15.65s.17-2.77,1.8-2.28,12.22,12.87,14.34,17.28,13.86,26.08,15,30.32,3.91,7.82,4.89,8.31,35.38,3.1,53.63,13.2c0,0-4.89-22.17-5.7-32.27s-1-8.48-2.94-12.56-21.35-27.87-46.62-34.88c0,0-17.44-4.24-30.81-2.28s-29.67,2.44-42.06,2.44c0,0-13.53-.65-24.94-7.66s-14.83-7.34-20.38-8.64-20.21-2.61-24.61-2.93c0,0-10.92.32-13.21,0s2.94-1.14,5.55-1.63,12.06-2.45,15.81-2.45,17.77-1.3,24,0,25.92,10.11,31.3,10.11,21-.16,27.06-.49,20.54-3.26,23.31-4.24,19.08-1.79,19.08-1.79S350,193.43,340.55,188.37s-23.32-12.06-27.23-16.13-14.83-12.72-18.58-14.84-10.6-6.85-15.65-8.31-7-1.8-8.48-3.59,3.91-1.14,7-1,14.84,3.1,19.89,5.87,22.17,12.88,25.27,13.69,22.82,12.56,24.61,13.54,9.62,6.52,9.62,5.7.82-12.23-.81-18.26-4.41-8-4.24-11.73-3.59-8.48-8.81-15.49-5.38-4.4-7.66-9.46,1.31-2.6,1.31-2.6,5.54,5.38,7.33,7,10.44,9,12.88,13.85,6.19,6.36,10.11,25.76.81,19.56,4.24,23.31,13.2,13.2,16.46,15.81,23,16.63,24.94,18.1,18.1,14.67,18.59,15.16,4.07-9.29,6.52-14.67,11.24-16.63,12.87-22.17,5.38-21.52.33-35.38-11.57-22.49-17.44-28-8.64-6.84-10.27-7-17.12,2.45-25.92-1-9.13-4.41-8.48-5.38,11.25,1.46,15.16,1.46,11.58-.65,11.25-1.3-15-10.76-16.79-20.22,3.1-1.14,3.75,0,9,9.62,16.46,14.35,25.43,13.86,29.51,19.24c0,0,7.82,5.7,11.74,14s10.76,23,9.61,35.86c0,0,13.37-8.31,17.28-13.53s9.79-12.23,9.79-16.79-1.15-15.65-4.08-21.52-13.86-19.4-18.58-23.47-11.9-11.25-16-15c-4.46-4.11-9-11.9-10.27-16s-1-15.16-1-15.16,1.8,5.54,2.77,8.15,8.15,13,12.07,17.28,9.61,7.83,13,10.6,18.09,13.37,20.86,17.77,11.58,13.85,12.23,22.17c0,0,14.67-10.92,16.3-12.23s3.1-2.61,3.1-2.61-11.09-9.78-14.84-17.28-8.64-17.93-7-31.62,6.36-27.06,7.83-31.3S516,45.41,516,47.2s-3.1,25.11-3.1,30.32-.32,22.83,5.22,30.49,19.09,18.42,19.09,18.42v17.11s-17.46,12.72-19.09,16-7.82,15.16-9.45,18.91-10.44,16.63-18.43,23.8S470.14,220,467.37,223.59s-11.73,15.16-13.69,26.4.32,37,3.91,46.63,17.44,26.57,23,31.95,27.55,19.23,30.48,21.35l26.25,21.52V786.15s-12.17,22.32-22,30.33C505.68,824.3,501,828.11,486,831.26s-30.16,5.55-38,6.41c-7.5.81-19.4,2.77-27.71,10.43S403.8,863.42,403,863.75s-1.47.49-1.47-1.3,8.64-12,12.72-16.51,13.2-11.42,19.89-13.27,37.49-7.23,41.73-9,17.7-8.64,21-14.67S502.09,793,501.61,789.9Z" transform="translate(-93.5 -33.02)"/>
    <path class="cls-1" d="M571.86,789.9s11.74,10.76,32.61,16.63,47.6,0,52.81,1,9.13,2.28,10.76,5.54,7.83,14.78,17.94,19.62,23.14,4.51,31.29,6.46,17.94,5.55,19.89,9.79c0,0-1.95-11.09-18.91-14.68s-26.73-7.17-30.32-11.08-8.48-10.43-9.13-14.35a40.65,40.65,0,0,1,13.7-.65c7.17,1,21.19,7.83,23.8,8.8s11.41,4.79,20.86,4.84,18.91,2.66,22.17,5.6,8.48,7.82,11.74,10.43c0,0-2-9.45-7.83-13s-9.45-6.85-19.23-8.48-14.08-1.95-19.92-4.56-22.47-10.44-33.22-13a173.67,173.67,0,0,0-37.5-4.24c-12.06,0-37.82-2-47.6-4.57s-23.08-10.1-29.15-16.62-8.34-13.7-8.34-24.78c0,0,8.15,10.1,14.34,14.67s19.89,13.69,28,15.32,22.5,5.22,34.56,4.89,23.8-2.28,30.65-3.26,17.93.33,23.47,3.91,21.36,9,25.92,9.62,21.36,4.89,25.6,5.06,22.49,1.95,28.2,3.42,22.82,9.29,26.08,12.71c0,0-6.52-8.47-14.83-13.69s-20.22-6.19-25.11-7.33-18.09-4.08-20.38-4.89a24.19,24.19,0,0,1-5.54-2.78s9-3.58,13-4.89,15.4-4.72,24.49-3.09,25.07,6.68,28.33,8.31a51.44,51.44,0,0,0,13.53,4.08c5.05.81,4.4-.33,4.4-.33a136.47,136.47,0,0,1-19.89-8.15,135.45,135.45,0,0,0-23.31-10c-6.36-2-16.63-5-35.21,1s-28.85,4.24-32.11,3.59-13.7-9.62-19.89-11.74S664,763.17,657,763.82s-23,1-29.83-4.4-16.31-17.61-19.08-32.93-2.28-68.47-2.93-78.41-7.83-71.89-10.27-85.75-9-50.37-10.11-59.82-3.1-25.27,0-43.69,26.08-33.91,32-37.5,22.66-12.22,32.61-14.67,28.2-5.38,34.39-5.7,36.84-1.14,44-1.14,26.24.32,35.37-2,18.75-4.73,24.45-7.66,16.31-9,18.1-10.6,11.41-9.45,13.53-12.39a28.23,28.23,0,0,0,3.26-6s-12.72,11.09-21.36,15-24.61,9.29-30.48,9.94-42.38.82-51-.49-12.72-3.42-12.72-3.42.82-13.37,10.76-22.5c0,0,26.08,2.45,35.7-1.95s9.11-8.16,9.94-9.13c0,0-14,7.82-26.57,6.52s-15-1.3-15-1.3,8.47-9.62,10.1-11.9c0,0,.65-1.15-2.12-1s-11.9,3.26-21,16.62-13.85,23.64-15,24-23,1.14-33.58,2.61a189.54,189.54,0,0,0-32.93,7.66c-9.46,3.26-30,12.71-37.66,17.44s-19.89,13.37-19.89,13.37-1.79-11.09,3.43-21.36,16.3-28,31.13-37.82,30-19.88,38.64-23.8,31.62-12.39,40.42-14.83,29.84-4.89,36.36-5.05,24.77-.17,34.39,1.46,30.65,12.07,37,16.14,32.11,19.4,33.9,20.54,7,4.08,8.64,6,5.06,13.86,9,20.71,13.53,21.68,23.47,27.06,27.39,3.91,27.39,3.91c1.79-2.28.82-3.59-.81-4.08s-9.13,0-13-.65-14-5.87-18.43-12.55-11.9-18.42-12.87-29.18c0,0-.49-.49,2-.65s8.15,3.09,19.73,3.58,24.45-.16,34.23-5.21,18.91-14.67,23.8-19.08,15-11.08,22.17-11.41,13.21-2.28,22.17,2c0,0,4.4,3.1,6.36,3.1s.49-3.1-2.94-5.38-4.23-4.08-14.67-6.2-21.63,1.77-26.08,3.43c-7,2.6-15.49,9.78-19.07,12.55s-14.51,11.25-22.66,12.88-18.75,3.09-29.34.65-29.18-12.55-32.12-14.18-31.62-20.71-33.42-22.5c0,0,11.74.49,20.05-.82s24.78-4.23,34.4-9.29,23.47-11.9,29.67-17.77,20.05-23,22.82-27.87,11.25-18.42,12.72-21.36,2.44-3.75,2.61-6.19-4.57,4.73-6.69,7-14.18,15.32-17,18.42-16.47,16.3-19.07,18.42-17.12,10.27-22.18,12.23a162.27,162.27,0,0,1-17.44,4.89c-.49,0,.65-12.72,3.91-20.87s10-18.09,12.88-21.84,3.1-5.06,2.12-5.38-5.7,2.12-9.29,5.54-11.41,13.86-14,18.75-10.6,25.75-10.6,25.75-28.69,3.26-39.45,1.63-43.36-7.5-53.3-7.17a148.91,148.91,0,0,1-15.83-.17s-2.27-10.43,1.16-18.25,7.33-14.51,13-17.12,5-4.07,3.91-4.56-6.68,1.14-8.48,2.12c0,0,7.34-12.88,8.15-15.65s-.16-2.77-1.79-2.28-12.22,12.87-14.34,17.28-13.86,26.08-15,30.32-3.91,7.82-4.89,8.31S661,299.88,642.78,310c0,0,4.89-22.17,5.7-32.27s1-8.48,2.94-12.56,21.35-27.87,46.62-34.88c0,0,17.44-4.24,30.81-2.28s29.67,2.44,42.06,2.44c0,0,13.53-.65,24.94-7.66s14.83-7.34,20.37-8.64,20.22-2.61,24.62-2.93c0,0,10.92.32,13.2,0s-2.93-1.14-5.54-1.63-12.06-2.45-15.81-2.45-17.77-1.3-24,0-25.92,10.11-31.3,10.11-21-.16-27.06-.49-20.54-3.26-23.31-4.24S708,210.71,708,210.71s15.49-17.28,24.94-22.34,23.32-12.06,27.23-16.13S775,159.52,778.73,157.4s10.6-6.85,15.65-8.31,7-1.8,8.48-3.59-3.91-1.14-7-1S781,147.62,776,150.39s-22.17,12.88-25.27,13.69-22.82,12.56-24.61,13.54-9.62,6.52-9.62,5.7-.82-12.23.81-18.26,4.41-8,4.24-11.73,3.59-8.48,8.81-15.49,5.38-4.4,7.66-9.46-1.31-2.6-1.31-2.6-5.54,5.38-7.33,7-10.44,9-12.88,13.85-6.2,6.36-10.11,25.76-.81,19.56-4.24,23.31-13.2,13.2-16.46,15.81-23,16.63-24.94,18.1-18.1,14.67-18.59,15.16-4.07-9.29-6.52-14.67-11.24-16.63-12.88-22.17-5.37-21.52-.32-35.38,11.57-22.49,17.44-28,8.64-6.84,10.27-7,17.12,2.45,25.92-1,9.13-4.41,8.48-5.38-11.25,1.46-15.16,1.46-11.58-.65-11.25-1.3,15-10.76,16.79-20.22-3.1-1.14-3.75,0-9,9.62-16.46,14.35-25.43,13.86-29.51,19.24c0,0-7.82,5.7-11.74,14s-10.76,23-9.61,35.86c0,0-13.37-8.31-17.28-13.53s-9.79-12.23-9.79-16.79,1.15-15.65,4.08-21.52,13.86-19.4,18.58-23.47,11.9-11.25,16-15c4.46-4.11,9-11.9,10.27-16s1-15.16,1-15.16-1.8,5.54-2.77,8.15-8.15,13-12.07,17.28-9.62,7.83-13,10.6-18.09,13.37-20.86,17.77-11.58,13.85-12.23,22.17c0,0-14.67-10.92-16.3-12.23s-3.1-2.61-3.1-2.61,11.09-9.78,14.83-17.28,8.64-17.93,7-31.62-6.35-27.06-7.82-31.3-2.77-8.64-2.77-6.85,3.1,25.11,3.1,30.32.32,22.83-5.22,30.49-19.09,18.42-19.09,18.42v17.11s17.46,12.72,19.09,16,7.82,15.16,9.45,18.91,10.44,16.63,18.43,23.8S603.33,220,606.1,223.59s11.73,15.16,13.69,26.4-.33,37-3.91,46.63-17.44,26.57-23,31.95-27.55,19.23-30.48,21.35l-26.25,21.52V786.15s12.17,22.32,22,30.33c9.62,7.82,14.31,11.63,29.33,14.78s30.16,5.55,38,6.41c7.49.81,19.4,2.77,27.71,10.43s16.46,15.32,17.28,15.65,1.47.49,1.47-1.3-8.64-12-12.72-16.51-13.2-11.42-19.89-13.27-37.49-7.23-41.73-9-17.7-8.64-21-14.67S571.37,793,571.86,789.9Z" transform="translate(-93.5 -33.02)"/>
  </g>
  <g id="Calque_4" data-name="Calque 4">
    <g>
      <polyline class="cls-8" points="404.96 619.53 404.96 567.04 404.96 513.14"/>
      <rect class="cls-2" x="398.36" y="612.93" width="13.2" height="13.2"/>
    </g>
    <g>
      <line class="cls-8" x1="424.86" y1="464.92" x2="424.86" y2="533.84"/>
      <path class="cls-2" d="M510.84,566.86a7.52,7.52,0,1,0,7.52-7.52A7.52,7.52,0,0,0,510.84,566.86Z" transform="translate(-93.5 -33.02)"/>
    </g>
    <g>
      <line class="cls-8" x1="443.83" y1="587" x2="443.83" y2="681.74"/>
      <rect class="cls-2" x="437.22" y="580.4" width="13.2" height="13.2"/>
    </g>
    <g>
      <polyline class="cls-8" points="464.66 452.3 464.66 497.45 486.12 512.38 486.12 556.58 486.12 572.46 464.66 587 464.66 619.15 486.12 629.1 486.12 647.14 486.12 660.87"/>
      <rect class="cls-2" x="458.06" y="445.69" width="13.2" height="13.2"/>
    </g>
    <g>
      <polyline class="cls-8" points="424.86 412.5 443.83 397 464.66 412.5"/>
      <rect class="cls-2" x="511.76" y="438.91" width="13.2" height="13.2" transform="matrix(0.77, -0.63, 0.63, 0.77, -258.44, 395.49)"/>
    </g>
    <line class="cls-8" x1="443.83" y1="360.92" x2="443.83" y2="397"/>
    <g>
      <polyline class="cls-8" points="424.86 609.3 424.86 567.04 443.83 552.56 443.83 431.25"/>
      <rect class="cls-2" x="418.26" y="602.7" width="13.2" height="13.2"/>
    </g>
    <g>
      <polyline class="cls-8" points="404.74 683.35 404.74 648.75 424.86 634.37"/>
      <rect class="cls-2" x="398.13" y="676.75" width="13.2" height="13.2"/>
    </g>
    <g>
      <polyline class="cls-8" points="385.28 693.96 385.28 634.37 384.67 593.64 404.96 575.12 404.96 505.65"/>
      <rect class="cls-2" x="398.36" y="499.38" width="13.2" height="13.2"/>
    </g>
    <circle class="cls-9" cx="384.67" cy="699.04" r="6.77"/>
    <circle class="cls-9" cx="443.83" cy="687.32" r="6.77"/>
    <circle class="cls-9" cx="486.21" cy="665.96" r="6.77"/>
    <circle class="cls-9" cx="468.62" cy="414.79" r="6.77"/>
    <circle class="cls-4" cx="424.62" cy="634.35" r="6.77"/>
    <circle class="cls-2" cx="464.66" cy="646.09" r="6.77"/>
    <circle class="cls-2" cx="466.26" cy="550.19" r="6.77"/>
    <circle class="cls-2" cx="443.98" cy="430.58" r="6.77"/>
    <circle class="cls-4" cx="443.86" cy="360.16" r="6.77"/>
    <rect class="cls-4" x="418.5" y="453.39" width="12.72" height="12.72"/>
    <circle class="cls-10" cx="440.06" cy="193.43" r="28.36"/>
  </g>
</svg>
